<svg width="100" height="100" viewBox="0 0 100 100" fill="none" xmlns="http://www.w3.org/2000/svg">
<path d="M8.33333 83.3333L33.3333 50L8.33333 16.6666H62.5C63.8194 16.6666 65.0694 16.9618 66.25 17.552C67.4305 18.1423 68.4028 18.9583 69.1667 20L91.6667 50L91.1458 50.7291C89.2708 49.4791 87.2396 48.4548 85.0521 47.6562C82.8646 46.8576 80.5903 46.3194 78.2292 46.0416L62.5 25H25L43.75 50L25 75H45.8333C45.8333 76.4583 45.9375 77.8819 46.1458 79.2708C46.3542 80.6597 46.6667 82.0138 47.0833 83.3333H8.33333ZM71.9792 84.375L86.4583 70L82.0833 65.625L71.9792 75.5208L67.9167 71.4583L63.5417 75.9375L71.9792 84.375ZM75 95.8333C69.2361 95.8333 64.3229 93.802 60.2604 89.7395C56.1979 85.677 54.1667 80.7638 54.1667 75C54.1667 69.2361 56.1979 64.3229 60.2604 60.2604C64.3229 56.1979 69.2361 54.1666 75 54.1666C80.7639 54.1666 85.6771 56.1979 89.7396 60.2604C93.8021 64.3229 95.8333 69.2361 95.8333 75C95.8333 80.7638 93.8021 85.677 89.7396 89.7395C85.6771 93.802 80.7639 95.8333 75 95.8333Z" fill="#59DEFA"/>
</svg>
