<svg width="120" height="120" viewBox="0 0 120 120" fill="none" xmlns="http://www.w3.org/2000/svg">
<path d="M35 85H70V75H35V85ZM35 65H85V55H35V65ZM35 45H85V35H35V45ZM25 105C22.25 105 19.8958 104.021 17.9375 102.062C15.9792 100.104 15 97.75 15 95V25C15 22.25 15.9792 19.8958 17.9375 17.9375C19.8958 15.9792 22.25 15 25 15H95C97.75 15 100.104 15.9792 102.062 17.9375C104.021 19.8958 105 22.25 105 25V95C105 97.75 104.021 100.104 102.062 102.062C100.104 104.021 97.75 105 95 105H25ZM25 95H95V25H25V95Z" fill="#59DEFA"/>
</svg>
