<svg width="100" height="100" viewBox="0 0 100 100" fill="none" xmlns="http://www.w3.org/2000/svg">
<path d="M50.2083 83.3333C40.9028 83.3333 32.9861 80.1041 26.4583 73.6458C19.9306 67.1875 16.6667 59.3055 16.6667 50V49.2708L10 55.9375L4.16667 50.1041L20.8333 33.4375L37.5 50.1041L31.6667 55.9375L25 49.2708V50C25 56.9444 27.4479 62.8472 32.3438 67.7083C37.2396 72.5694 43.1944 75 50.2083 75C52.0139 75 53.7847 74.7916 55.5208 74.375C57.2569 73.9583 58.9583 73.3333 60.625 72.5L66.875 78.75C64.2361 80.2777 61.5278 81.4236 58.75 82.1875C55.9722 82.9513 53.125 83.3333 50.2083 83.3333ZM79.1667 66.5625L62.5 49.8958L68.3333 44.0625L75 50.7291V50C75 43.0555 72.5521 37.1527 67.6563 32.2916C62.7604 27.4305 56.8056 25 49.7917 25C47.9861 25 46.2153 25.2083 44.4792 25.625C42.7431 26.0416 41.0417 26.6666 39.375 27.5L33.125 21.25C35.7639 19.7222 38.4722 18.5763 41.25 17.8125C44.0278 17.0486 46.875 16.6666 49.7917 16.6666C59.0972 16.6666 67.0139 19.8958 73.5417 26.3541C80.0695 32.8125 83.3333 40.6944 83.3333 50V50.7291L90 44.0625L95.8333 49.8958L79.1667 66.5625Z" fill="#59DEFA"/>
</svg>
