<svg width="150" height="150" viewBox="0 0 150 150" fill="none" xmlns="http://www.w3.org/2000/svg">
<path d="M112.5 131.25L103.75 122.5L113.594 112.5H87.5V100H113.594L103.75 90L112.5 81.25L137.5 106.25L112.5 131.25ZM18.75 131.25V37.5C18.75 34.0625 19.974 31.1198 22.4219 28.6719C24.8698 26.224 27.8125 25 31.25 25H106.25C109.688 25 112.63 26.224 115.078 28.6719C117.526 31.1198 118.75 34.0625 118.75 37.5V69.2187C117.708 69.0104 116.667 68.8802 115.625 68.8281C114.583 68.776 113.542 68.75 112.5 68.75C111.458 68.75 110.417 68.776 109.375 68.8281C108.333 68.8802 107.292 69.0104 106.25 69.2187V37.5H31.25V100H75.4688C75.2604 101.042 75.1302 102.083 75.0781 103.125C75.026 104.167 75 105.208 75 106.25C75 107.292 75.026 108.333 75.0781 109.375C75.1302 110.417 75.2604 111.458 75.4688 112.5H37.5L18.75 131.25ZM43.75 62.5H93.75V50H43.75V62.5ZM43.75 87.5H75V75H43.75V87.5Z" fill="#59DEFA"/>
</svg>
