<svg width="150" height="150" viewBox="0 0 150 150" fill="none" xmlns="http://www.w3.org/2000/svg">
<path d="M65.7812 103.438L110 59.2188L102.812 52.1875L65.7812 89.2188L47.0312 70.4688L40 77.5L65.7812 103.438ZM75 137.5C66.4583 137.5 58.3854 135.859 50.7812 132.578C43.1771 129.297 36.5365 124.818 30.8594 119.141C25.1823 113.464 20.7031 106.823 17.4219 99.2188C14.1406 91.6146 12.5 83.5417 12.5 75C12.5 66.3542 14.1406 58.2292 17.4219 50.625C20.7031 43.0208 25.1823 36.4062 30.8594 30.7812C36.5365 25.1562 43.1771 20.7031 50.7812 17.4219C58.3854 14.1406 66.4583 12.5 75 12.5C83.6458 12.5 91.7708 14.1406 99.375 17.4219C106.979 20.7031 113.594 25.1562 119.219 30.7812C124.844 36.4062 129.297 43.0208 132.578 50.625C135.859 58.2292 137.5 66.3542 137.5 75C137.5 83.5417 135.859 91.6146 132.578 99.2188C129.297 106.823 124.844 113.464 119.219 119.141C113.594 124.818 106.979 129.297 99.375 132.578C91.7708 135.859 83.6458 137.5 75 137.5ZM75 128.125C89.7917 128.125 102.344 122.943 112.656 112.578C122.969 102.214 128.125 89.6875 128.125 75C128.125 60.2083 122.969 47.6562 112.656 37.3438C102.344 27.0312 89.7917 21.875 75 21.875C60.3125 21.875 47.7865 27.0312 37.4219 37.3438C27.0573 47.6562 21.875 60.2083 21.875 75C21.875 89.6875 27.0573 102.214 37.4219 112.578C47.7865 122.943 60.3125 128.125 75 128.125Z" fill="#59DEFA"/>
</svg>
