<svg width="150" height="150" viewBox="0 0 150 150" fill="none" xmlns="http://www.w3.org/2000/svg">
<path d="M42.1875 125C36.9792 125 32.7083 123.125 29.375 119.375C26.0417 115.625 24.6354 111.198 25.1562 106.094H9.53125L11.5625 96.7188H29.0625C30.625 94.8438 32.526 93.3594 34.7656 92.2656C37.0052 91.1719 39.4792 90.625 42.1875 90.625C44.8958 90.625 47.3698 91.1719 49.6094 92.2656C51.849 93.3594 53.75 94.8438 55.3125 96.7188H86.25L100.625 34.375H29.0625L29.5312 32.3438C30.0521 30.1562 31.1458 28.3854 32.8125 27.0312C34.4792 25.6771 36.4062 25 38.5938 25H112.344L106.25 51.5625H125.781L143.594 75.3125L137.5 106.094H125C125.521 111.198 124.089 115.625 120.703 119.375C117.318 123.125 113.021 125 107.812 125C102.604 125 98.3333 123.125 95 119.375C91.6667 115.625 90.2604 111.198 90.7812 106.094H59.375C59.8958 111.198 58.4635 115.625 55.0781 119.375C51.6927 123.125 47.3958 125 42.1875 125ZM99.0625 82.8125H132.656L133.594 77.6562L121.094 60.9375H104.062L99.0625 82.8125ZM99.2188 40.1562L100.625 34.375L86.25 96.7188L87.5 91.0938L92.8125 68.2812L99.2188 40.1562ZM3.4375 81.7188L5.78125 72.3438H40.1562L37.8125 81.7188H3.4375ZM15.9375 58.9062L18.2812 49.5312H58.9062L56.5625 58.9062H15.9375ZM42.1875 115.625C44.375 115.625 46.224 114.844 47.7344 113.281C49.2448 111.719 50 109.896 50 107.812C50 105.625 49.2448 103.776 47.7344 102.266C46.224 100.755 44.375 100 42.1875 100C40.1042 100 38.2812 100.755 36.7188 102.266C35.1562 103.776 34.375 105.625 34.375 107.812C34.375 109.896 35.1562 111.719 36.7188 113.281C38.2812 114.844 40.1042 115.625 42.1875 115.625ZM107.812 115.625C110 115.625 111.849 114.844 113.359 113.281C114.87 111.719 115.625 109.896 115.625 107.812C115.625 105.625 114.87 103.776 113.359 102.266C111.849 100.755 110 100 107.812 100C105.729 100 103.906 100.755 102.344 102.266C100.781 103.776 100 105.625 100 107.812C100 109.896 100.781 111.719 102.344 113.281C103.906 114.844 105.729 115.625 107.812 115.625Z" fill="#59DEFA"/>
</svg>
