<svg width="120" height="120" viewBox="0 0 120 120" fill="none" xmlns="http://www.w3.org/2000/svg">
<path d="M35 100C30.8333 100 27.2917 98.5417 24.375 95.625C21.4583 92.7083 20 89.1667 20 85H7.5L9.75 75H23.875C25.2917 73.4167 26.9583 72.1875 28.875 71.3125C30.7917 70.4375 32.8333 70 35 70C37.1667 70 39.2083 70.4375 41.125 71.3125C43.0417 72.1875 44.7083 73.4167 46.125 75H67L77.5 30H22.75L23.25 27.875C23.75 25.5417 24.8958 23.6458 26.6875 22.1875C28.4792 20.7292 30.5833 20 33 20H90L85.375 40H100L115 60L110 85H100C100 89.1667 98.5417 92.7083 95.625 95.625C92.7083 98.5417 89.1667 100 85 100C80.8333 100 77.2917 98.5417 74.375 95.625C71.4583 92.7083 70 89.1667 70 85H50C50 89.1667 48.5417 92.7083 45.625 95.625C42.7083 98.5417 39.1667 100 35 100ZM79.625 65H103.75L104.25 62.375L95 50H83.125L79.625 65ZM77.25 30.875L77.5 30L67 75L67.25 74.125L71.5 55.875L77.25 30.875ZM2.5 66.625L5 56.625H32.5L30 66.625H2.5ZM12.5 48.375L15 38.375H47.5L45 48.375H12.5ZM35 90C36.4167 90 37.6042 89.5208 38.5625 88.5625C39.5208 87.6042 40 86.4167 40 85C40 83.5833 39.5208 82.3958 38.5625 81.4375C37.6042 80.4792 36.4167 80 35 80C33.5833 80 32.3958 80.4792 31.4375 81.4375C30.4792 82.3958 30 83.5833 30 85C30 86.4167 30.4792 87.6042 31.4375 88.5625C32.3958 89.5208 33.5833 90 35 90ZM85 90C86.4167 90 87.6042 89.5208 88.5625 88.5625C89.5208 87.6042 90 86.4167 90 85C90 83.5833 89.5208 82.3958 88.5625 81.4375C87.6042 80.4792 86.4167 80 85 80C83.5833 80 82.3958 80.4792 81.4375 81.4375C80.4792 82.3958 80 83.5833 80 85C80 86.4167 80.4792 87.6042 81.4375 88.5625C82.3958 89.5208 83.5833 90 85 90Z" fill="#59DEFA"/>
</svg>
