<svg width="120" height="120" viewBox="0 0 120 120" fill="none" xmlns="http://www.w3.org/2000/svg">
<path d="M59.375 100C59.7083 100 60.0417 99.9167 60.375 99.75C60.7083 99.5833 60.9583 99.4167 61.125 99.25L102.125 58.25C103.125 57.25 103.854 56.125 104.313 54.875C104.771 53.625 105 52.375 105 51.125C105 49.7917 104.771 48.5208 104.313 47.3125C103.854 46.1042 103.125 45.0417 102.125 44.125L80.875 22.875C79.9584 21.875 78.8959 21.1458 77.6875 20.6875C76.4792 20.2292 75.2084 20 73.875 20C72.625 20 71.375 20.2292 70.125 20.6875C68.875 21.1458 67.75 21.875 66.75 22.875L65.375 24.25L74.625 33.625C75.875 34.7917 76.7917 36.125 77.375 37.625C77.9584 39.125 78.25 40.7083 78.25 42.375C78.25 45.875 77.0625 48.8125 74.6875 51.1875C72.3125 53.5625 69.375 54.75 65.875 54.75C64.2083 54.75 62.6042 54.4583 61.0625 53.875C59.5208 53.2917 58.1667 52.4167 57 51.25L47.625 42L25.75 63.875C25.5 64.125 25.3125 64.3958 25.1875 64.6875C25.0625 64.9792 25 65.2917 25 65.625C25 66.2917 25.25 66.8958 25.75 67.4375C26.25 67.9792 26.8333 68.25 27.5 68.25C27.8333 68.25 28.1667 68.1667 28.5 68C28.8333 67.8333 29.0833 67.6667 29.25 67.5L46.25 50.5L53.25 57.5L36.375 74.5C36.125 74.75 35.9375 75.0208 35.8125 75.3125C35.6875 75.6042 35.625 75.9167 35.625 76.25C35.625 76.9167 35.875 77.5 36.375 78C36.875 78.5 37.4583 78.75 38.125 78.75C38.4583 78.75 38.7917 78.6667 39.125 78.5C39.4583 78.3333 39.7083 78.1667 39.875 78L56.875 61.125L63.875 68.125L47 85.125C46.75 85.2917 46.5625 85.5417 46.4375 85.875C46.3125 86.2083 46.25 86.5417 46.25 86.875C46.25 87.5417 46.5 88.125 47 88.625C47.5 89.125 48.0833 89.375 48.75 89.375C49.0833 89.375 49.3958 89.3125 49.6875 89.1875C49.9792 89.0625 50.25 88.875 50.5 88.625L67.5 71.75L74.5 78.75L57.5 95.75C57.25 96 57.0625 96.2708 56.9375 96.5625C56.8125 96.8542 56.75 97.1667 56.75 97.5C56.75 98.1667 57.0208 98.75 57.5625 99.25C58.1042 99.75 58.7083 100 59.375 100ZM59.25 110C56.1667 110 53.4375 108.979 51.0625 106.938C48.6875 104.896 47.2917 102.333 46.875 99.25C44.0417 98.8333 41.6667 97.6667 39.75 95.75C37.8333 93.8333 36.6667 91.4583 36.25 88.625C33.4167 88.2083 31.0625 87.0208 29.1875 85.0625C27.3125 83.1042 26.1667 80.75 25.75 78C22.5833 77.5833 20 76.2083 18 73.875C16 71.5417 15 68.7917 15 65.625C15 63.9583 15.3125 62.3542 15.9375 60.8125C16.5625 59.2708 17.4583 57.9167 18.625 56.75L47.625 27.875L64 44.25C64.1667 44.5 64.4167 44.6875 64.75 44.8125C65.0833 44.9375 65.4167 45 65.75 45C66.5 45 67.125 44.7708 67.625 44.3125C68.125 43.8542 68.375 43.25 68.375 42.5C68.375 42.1667 68.3125 41.8333 68.1875 41.5C68.0625 41.1667 67.875 40.9167 67.625 40.75L49.75 22.875C48.8333 21.875 47.7708 21.1458 46.5625 20.6875C45.3542 20.2292 44.0833 20 42.75 20C41.5 20 40.25 20.2292 39 20.6875C37.75 21.1458 36.625 21.875 35.625 22.875L18 40.625C17.25 41.375 16.625 42.25 16.125 43.25C15.625 44.25 15.2917 45.25 15.125 46.25C14.9583 47.25 14.9583 48.2708 15.125 49.3125C15.2917 50.3542 15.625 51.3333 16.125 52.25L8.87501 59.5C7.45835 57.5833 6.41668 55.4792 5.75001 53.1875C5.08335 50.8958 4.83335 48.5833 5.00001 46.25C5.16668 43.9167 5.75001 41.6458 6.75001 39.4375C7.75001 37.2292 9.12501 35.25 10.875 33.5L28.5 15.875C30.5 13.9583 32.7292 12.5 35.1875 11.5C37.6458 10.5 40.1667 10 42.75 10C45.3333 10 47.8542 10.5 50.3125 11.5C52.7708 12.5 54.9583 13.9583 56.875 15.875L58.25 17.25L59.625 15.875C61.625 13.9583 63.8542 12.5 66.3125 11.5C68.7708 10.5 71.2917 10 73.875 10C76.4584 10 78.9792 10.5 81.4375 11.5C83.8959 12.5 86.0834 13.9583 88 15.875L109.125 37C111.042 38.9167 112.5 41.125 113.5 43.625C114.5 46.125 115 48.6667 115 51.25C115 53.8333 114.5 56.3542 113.5 58.8125C112.5 61.2708 111.042 63.4583 109.125 65.375L68.125 106.25C66.9583 107.417 65.6042 108.333 64.0625 109C62.5208 109.667 60.9167 110 59.25 110Z" fill="#59DEFA"/>
</svg>
