<svg width="100" height="100" viewBox="0 0 100 100" fill="none" xmlns="http://www.w3.org/2000/svg">
<path d="M31.25 75C26.6667 75 22.7431 73.3681 19.4792 70.1042C16.2153 66.8403 14.5833 62.9167 14.5833 58.3333V41.3542C14.5833 37.8125 15.6944 34.7049 17.9167 32.0312C20.1389 29.3576 22.9861 27.7083 26.4583 27.0833C30.4167 26.3194 34.3403 25.7812 38.2292 25.4688C42.1181 25.1562 46.0417 25 50 25C53.9583 25 57.8993 25.1562 61.8229 25.4688C65.7465 25.7812 69.6528 26.3194 73.5417 27.0833C77.0139 27.7778 79.8611 29.4444 82.0833 32.0833C84.3056 34.7222 85.4167 37.8125 85.4167 41.3542V58.3333C85.4167 62.9167 83.7847 66.8403 80.5208 70.1042C77.257 73.3681 73.3333 75 68.75 75H64.5833C63.6806 75 62.7778 74.9479 61.875 74.8438C60.9722 74.7396 60.1042 74.5139 59.2708 74.1667L52.6042 71.875C51.7708 71.5278 50.9028 71.3542 50 71.3542C49.0972 71.3542 48.2292 71.5278 47.3958 71.875L40.7292 74.1667C39.8958 74.5139 39.0278 74.7396 38.125 74.8438C37.2222 74.9479 36.3195 75 35.4167 75H31.25ZM31.25 66.6667H35.4167C35.9028 66.6667 36.3715 66.6319 36.8229 66.5625C37.2743 66.4931 37.7083 66.3889 38.125 66.25C40.1389 65.625 42.1007 64.9653 44.0104 64.2708C45.9201 63.5764 47.9167 63.2292 50 63.2292C52.0833 63.2292 54.0972 63.559 56.0417 64.2188C57.9861 64.8785 59.9306 65.5556 61.875 66.25C62.2917 66.3889 62.7257 66.4931 63.1771 66.5625C63.6285 66.6319 64.0972 66.6667 64.5833 66.6667H68.75C71.0417 66.6667 73.0035 65.8507 74.6354 64.2188C76.2674 62.5868 77.0833 60.625 77.0833 58.3333V41.3542C77.0833 39.8264 76.5972 38.5069 75.625 37.3958C74.6528 36.2847 73.4375 35.5556 71.9792 35.2083C68.3681 34.4444 64.7396 33.941 61.0938 33.6979C57.4479 33.4549 53.75 33.3333 50 33.3333C46.25 33.3333 42.5695 33.4722 38.9583 33.75C35.3472 34.0278 31.7014 34.5139 28.0208 35.2083C26.5625 35.4861 25.3472 36.1979 24.375 37.3438C23.4028 38.4896 22.9167 39.8264 22.9167 41.3542V58.3333C22.9167 60.625 23.7326 62.5868 25.3646 64.2188C26.9965 65.8507 28.9583 66.6667 31.25 66.6667ZM4.16667 58.3333V41.6667H10.4167V58.3333H4.16667ZM89.5833 58.3333V41.6667H95.8333V58.3333H89.5833Z" fill="#59DEFA"/>
</svg>
