<svg width="100" height="100" viewBox="0 0 100 100" fill="none" xmlns="http://www.w3.org/2000/svg">
<path d="M35 87.5C28.6806 87.5 23.3507 85.3299 19.0104 80.9896C14.6701 76.6493 12.5 71.3194 12.5 65C12.5 62.3611 12.9514 59.7917 13.8542 57.2917C14.7569 54.7917 16.0417 52.5347 17.7083 50.5208L32.5 32.7083L22.3958 12.5H77.6042L67.5 32.7083L82.2917 50.5208C83.9583 52.5347 85.2431 54.7917 86.1458 57.2917C87.0486 59.7917 87.5 62.3611 87.5 65C87.5 71.3194 85.3125 76.6493 80.9375 80.9896C76.5625 85.3299 71.25 87.5 65 87.5H35ZM50 66.6667C47.7083 66.6667 45.7465 65.8507 44.1146 64.2188C42.4826 62.5868 41.6667 60.625 41.6667 58.3333C41.6667 56.0417 42.4826 54.0799 44.1146 52.4479C45.7465 50.816 47.7083 50 50 50C52.2917 50 54.2535 50.816 55.8854 52.4479C57.5174 54.0799 58.3333 56.0417 58.3333 58.3333C58.3333 60.625 57.5174 62.5868 55.8854 64.2188C54.2535 65.8507 52.2917 66.6667 50 66.6667ZM40.1042 29.1667H59.8958L64.0625 20.8333H35.9375L40.1042 29.1667ZM35 79.1667H65C68.9583 79.1667 72.309 77.7951 75.0521 75.0521C77.7951 72.309 79.1667 68.9583 79.1667 65C79.1667 63.3333 78.8715 61.7188 78.2812 60.1562C77.691 58.5938 76.875 57.1875 75.8333 55.9375L60.5208 37.5H39.5833L24.1667 55.8333C23.125 57.0833 22.309 58.5069 21.7188 60.1042C21.1285 61.7014 20.8333 63.3333 20.8333 65C20.8333 68.9583 22.2049 72.309 24.9479 75.0521C27.691 77.7951 31.0417 79.1667 35 79.1667Z" fill="#59DEFA"/>
</svg>
