<svg width="150" height="150" viewBox="0 0 150 150" fill="none" xmlns="http://www.w3.org/2000/svg">
<path d="M68.75 121.406V78.5938L31.25 56.875V99.6875L68.75 121.406ZM81.25 121.406L118.75 99.6875V56.875L81.25 78.5938V121.406ZM68.75 135.781L25 110.625C23.0208 109.479 21.4844 107.969 20.3906 106.094C19.2969 104.219 18.75 102.135 18.75 99.8438V50.1562C18.75 47.8646 19.2969 45.7812 20.3906 43.9062C21.4844 42.0312 23.0208 40.5208 25 39.375L68.75 14.2188C70.7292 13.0729 72.8125 12.5 75 12.5C77.1875 12.5 79.2708 13.0729 81.25 14.2188L125 39.375C126.979 40.5208 128.516 42.0312 129.609 43.9062C130.703 45.7812 131.25 47.8646 131.25 50.1562V99.8438C131.25 102.135 130.703 104.219 129.609 106.094C128.516 107.969 126.979 109.479 125 110.625L81.25 135.781C79.2708 136.927 77.1875 137.5 75 137.5C72.8125 137.5 70.7292 136.927 68.75 135.781ZM100 53.2812L112.031 46.4062L75 25L62.8125 32.0312L100 53.2812ZM75 67.8125L87.1875 60.7812L50.1562 39.375L37.9688 46.4062L75 67.8125Z" fill="#59DEFA"/>
</svg>
