<svg width="100" height="100" viewBox="0 0 100 100" fill="none" xmlns="http://www.w3.org/2000/svg">
<path d="M50 91.6666C40.3472 89.236 32.3785 83.6978 26.0938 75.052C19.809 66.4062 16.6667 56.8055 16.6667 46.2499V20.8333L50 8.33325L83.3333 20.8333V46.2499C83.3333 56.8055 80.191 66.4062 73.9063 75.052C67.6215 83.6978 59.6528 89.236 50 91.6666ZM50 82.9166C57.2222 80.6249 63.1945 76.0416 67.9167 69.1666C72.6389 62.2916 75 54.6527 75 46.2499V26.5624L50 17.1874L25 26.5624V46.2499C25 54.6527 27.3611 62.2916 32.0833 69.1666C36.8056 76.0416 42.7778 80.6249 50 82.9166Z" fill="#59DEFA"/>
</svg>
