<svg width="150" height="150" viewBox="0 0 150 150" fill="none" xmlns="http://www.w3.org/2000/svg">
<path d="M29.5312 125C23.2812 125 17.9427 122.76 13.5156 118.281C9.08854 113.802 6.77083 108.385 6.5625 102.031C6.5625 101.094 6.61458 100.156 6.71875 99.2188C6.82292 98.2812 6.97917 97.3438 7.1875 96.4062L20.3125 43.9062C21.7708 38.2812 24.7396 33.724 29.2188 30.2344C33.6979 26.7448 38.8021 25 44.5312 25H105.469C111.198 25 116.302 26.7448 120.781 30.2344C125.26 33.724 128.229 38.2812 129.688 43.9062L142.812 96.4062C143.021 97.3438 143.203 98.3073 143.359 99.2969C143.516 100.286 143.594 101.25 143.594 102.188C143.594 108.542 141.328 113.932 136.797 118.359C132.266 122.786 126.823 125 120.469 125C116.094 125 112.031 123.854 108.281 121.562C104.531 119.271 101.719 116.146 99.8438 112.188L95.4688 103.125C94.9479 102.083 94.1667 101.302 93.125 100.781C92.0833 100.26 90.9896 100 89.8438 100H60.1562C59.0104 100 57.9167 100.26 56.875 100.781C55.8333 101.302 55.0521 102.083 54.5312 103.125L50.1562 112.188C48.2812 116.146 45.4688 119.271 41.7188 121.562C37.9688 123.854 33.9062 125 29.5312 125ZM29.9469 115.625C32.4823 115.625 34.8266 114.949 36.9797 113.598C39.1318 112.246 40.7635 110.422 41.875 108.125L46.25 99.2188C47.6042 96.5104 49.5052 94.401 51.9531 92.8906C54.401 91.3802 57.1354 90.625 60.1562 90.625H89.8438C92.8646 90.625 95.599 91.4062 98.0469 92.9688C100.495 94.5312 102.448 96.6146 103.906 99.2188L108.281 108.125C109.393 110.422 111.024 112.246 113.177 113.598C115.33 114.949 117.67 115.625 120.197 115.625C123.92 115.625 127.135 114.349 129.844 111.797C132.552 109.245 133.958 106.094 134.062 102.344C134.062 101.927 133.906 100.677 133.594 98.5938L120.469 46.25C119.635 42.8125 117.844 39.974 115.094 37.7344C112.344 35.4948 109.135 34.375 105.469 34.375H44.5312C40.9167 34.375 37.7214 35.4688 34.9453 37.6562C32.1693 39.8438 30.3646 42.7083 29.5312 46.25L16.4062 98.5938C16.3021 99.0104 16.1458 100.208 15.9375 102.188C15.9375 105.988 17.3052 109.177 20.0406 111.756C22.776 114.335 26.0781 115.625 29.9469 115.625ZM84.4031 67.1875C85.7385 67.1875 86.849 66.7354 87.7344 65.8313C88.6198 64.9281 89.0625 63.8083 89.0625 62.4719C89.0625 61.1365 88.6104 60.026 87.7063 59.1406C86.8031 58.2552 85.6833 57.8125 84.3469 57.8125C83.0115 57.8125 81.901 58.2646 81.0156 59.1687C80.1302 60.0719 79.6875 61.1917 79.6875 62.5281C79.6875 63.8635 80.1396 64.974 81.0437 65.8594C81.9469 66.7448 83.0667 67.1875 84.4031 67.1875ZM96.9031 54.6875C98.2385 54.6875 99.349 54.2354 100.234 53.3313C101.12 52.4281 101.562 51.3083 101.562 49.9719C101.562 48.6365 101.11 47.526 100.206 46.6406C99.3031 45.7552 98.1833 45.3125 96.8469 45.3125C95.5115 45.3125 94.401 45.7646 93.5156 46.6687C92.6302 47.5719 92.1875 48.6917 92.1875 50.0281C92.1875 51.3635 92.6396 52.474 93.5437 53.3594C94.4469 54.2448 95.5667 54.6875 96.9031 54.6875ZM96.9031 79.6875C98.2385 79.6875 99.349 79.2354 100.234 78.3313C101.12 77.4281 101.562 76.3083 101.562 74.9719C101.562 73.6365 101.11 72.526 100.206 71.6406C99.3031 70.7552 98.1833 70.3125 96.8469 70.3125C95.5115 70.3125 94.401 70.7646 93.5156 71.6687C92.6302 72.5719 92.1875 73.6917 92.1875 75.0281C92.1875 76.3635 92.6396 77.474 93.5437 78.3594C94.4469 79.2448 95.5667 79.6875 96.9031 79.6875ZM109.403 67.1875C110.739 67.1875 111.849 66.7354 112.734 65.8313C113.62 64.9281 114.062 63.8083 114.062 62.4719C114.062 61.1365 113.61 60.026 112.706 59.1406C111.803 58.2552 110.683 57.8125 109.347 57.8125C108.011 57.8125 106.901 58.2646 106.016 59.1687C105.13 60.0719 104.688 61.1917 104.688 62.5281C104.688 63.8635 105.14 64.974 106.044 65.8594C106.947 66.7448 108.067 67.1875 109.403 67.1875ZM53.1437 77.3438C54.2771 77.3438 55.2083 76.975 55.9375 76.2375C56.6667 75.499 57.0312 74.5656 57.0312 73.4375V66.4062H64.0625C65.1906 66.4062 66.124 66.0354 66.8625 65.2938C67.6 64.5531 67.9688 63.6156 67.9688 62.4813C67.9688 61.3479 67.6 60.4167 66.8625 59.6875C66.124 58.9583 65.1906 58.5938 64.0625 58.5938H57.0312V51.5625C57.0312 50.4344 56.6604 49.501 55.9188 48.7625C55.1781 48.025 54.2406 47.6562 53.1063 47.6562C51.9729 47.6562 51.0417 48.025 50.3125 48.7625C49.5833 49.501 49.2188 50.4344 49.2188 51.5625V58.5938H42.1875C41.0594 58.5938 40.126 58.9646 39.3875 59.7062C38.65 60.4469 38.2812 61.3844 38.2812 62.5187C38.2812 63.6521 38.65 64.5833 39.3875 65.3125C40.126 66.0417 41.0594 66.4062 42.1875 66.4062H49.2188V73.4375C49.2188 74.5656 49.5896 75.499 50.3312 76.2375C51.0719 76.975 52.0094 77.3438 53.1437 77.3438Z" fill="#59DEFA"/>
</svg>
